<?xml version="1.0" encoding="iso-8859-1"?>
<!-- Uploaded to: SVG Repo, www.svgrepo.com, Generator: SVG Repo Mixer Tools -->
<svg height="800px" width="800px" version="1.1" id="Layer_1" xmlns="http://www.w3.org/2000/svg" xmlns:xlink="http://www.w3.org/1999/xlink" 
	 viewBox="0 0 512 512" xml:space="preserve">
<circle style="fill:#C1321F;" cx="256" cy="256" r="256"/>
<path style="fill:#A82116;" d="M358.79,150.304L256.002,390.141l101.104,101.104c78.21-33.659,136.282-105.17,151.152-191.472
	L358.79,150.304z"/>
<polygon style="fill:#84DBFF;" points="393.052,218.829 118.951,218.829 153.214,150.304 358.79,150.304 "/>
<polygon style="fill:#31BAFD;" points="358.79,150.304 256.002,150.304 256.002,218.829 393.052,218.829 "/>
<polygon style="fill:#B5F1F4;" points="118.951,218.829 256.002,390.142 256.002,390.141 256.002,218.829 "/>
<polygon style="fill:#84DBFF;" points="256.002,218.829 256.002,390.141 393.052,218.829 "/>
<polygon style="fill:#31BAFD;" points="188.514,218.829 256.002,390.142 323.489,218.829 "/>
<polygon style="fill:#2B9ED8;" points="256.002,218.829 256.002,390.141 323.489,218.829 "/>
<g>
	<polygon style="fill:#B5F1F4;" points="358.79,150.304 323.489,218.829 256.002,150.304 188.514,218.829 153.214,150.304 	"/>
	<path style="fill:#B5F1F4;" d="M256.002,150.304L256.002,150.304L256.002,150.304z"/>
</g>
<polygon style="fill:#84DBFF;" points="358.79,150.304 256.002,150.304 256.002,150.304 323.489,218.829 "/>
</svg>